<?xml version="1.0" encoding="utf-8"?>
<!-- Generator: Adobe Illustrator 28.3.0, SVG Export Plug-In . SVG Version: 6.00 Build 0)  -->
<svg version="1.1" id="Ebene_1" xmlns="http://www.w3.org/2000/svg" xmlns:xlink="http://www.w3.org/1999/xlink" x="0px" y="0px"
	 viewBox="0 0 202 201.1" style="enable-background:new 0 0 202 201.1;" xml:space="preserve">
<path d="M318.6,145.7h-55.5v-91h55.5v9.6H274v30.5h42v9.6h-42V136h44.6V145.7L318.6,145.7z M340.3,145.7v-91h37.4
	c7.5,0,13.4,2.1,17.7,6.4s6.5,9.9,6.5,17.1c0,4.5-0.8,8.1-2.5,10.8c-1.6,2.7-3.5,4.7-5.9,6c-2.3,1.3-4.4,2.1-6.4,2.5v0.8
	c1.6,0.1,3.5,0.6,5.5,1.4c2.1,0.8,4,2,5.9,3.7c1.9,1.7,3.5,3.8,4.7,6.4c1.2,2.6,1.8,5.8,1.8,9.6c0,4.9-1,9.4-3.1,13.4
	c-2,4-4.8,7.2-8.3,9.5c-3.5,2.3-7.5,3.4-12,3.4L340.3,145.7L340.3,145.7z M351.3,103.5V136h27c3.1,0,5.8-0.5,8.1-1.6
	c2.3-1.1,4-2.7,5.2-4.8c1.2-2.1,1.8-4.7,1.8-7.7v-4.4c0-3-0.6-5.6-1.8-7.7s-3-3.7-5.2-4.7c-2.3-1.1-5-1.7-8.1-1.7L351.3,103.5
	L351.3,103.5z M351.3,64.4v29.7h25.1c2.9,0,5.3-0.5,7.3-1.4c2.1-1,3.7-2.5,4.8-4.3c1.1-1.9,1.7-4.2,1.7-6.9V77
	c0-2.7-0.6-4.9-1.7-6.8c-1.1-1.9-2.7-3.3-4.8-4.3c-2-1-4.4-1.6-7.3-1.6C376.4,64.4,351.3,64.4,351.3,64.4z M437.7,106.6v39.1h-11
	v-91H463c5.3,0,9.8,1,13.5,3c3.8,2,6.7,4.9,8.7,8.7c2.1,3.8,3.1,8.5,3.1,14.1c0,6.6-1.6,12.1-4.7,16.4s-7.6,7.2-13.5,8.6l20.9,40.1
	h-12.4L459,106.6L437.7,106.6L437.7,106.6z M437.7,97.2H463c2.9,0,5.3-0.5,7.3-1.4c2.1-1,3.6-2.5,4.7-4.4c1.1-2,1.7-4.4,1.7-7.2
	v-6.8c0-2.8-0.6-5.1-1.7-7c-1-2-2.6-3.5-4.7-4.4c-2-1-4.4-1.6-7.3-1.6h-25.3V97.2z M579.9,145.7h-11.5l-9.1-26.8h-36.8l-9.1,26.8
	h-11.1l31.8-91h13.9L579.9,145.7L579.9,145.7z M556.5,109.2l-11.5-33l-3.9-11.3h-0.7l-3.9,11.3l-11.5,33H556.5L556.5,109.2z
	 M628.4,145.7H592v-9.1h12.8V63.8H592v-9.1h36.5v9.1h-12.8v72.7h12.8V145.7z M705,145.7l-33.2-55.5l-11-20.2h-0.4v75.7h-10.7v-91
	h12.6l33.2,55.5l11,20.2h0.4V54.7h10.7v91L705,145.7L705,145.7z M768.7,147.2c-7.3,0-13.6-1.4-18.9-4.2c-5.2-2.9-9.6-6.8-13.3-11.7
	l8.1-6.8c3.2,4.3,6.8,7.5,10.7,9.8c3.9,2.2,8.5,3.3,13.8,3.3c6.5,0,11.5-1.6,14.9-4.7c3.5-3.1,5.2-7.3,5.2-12.5
	c0-2.9-0.6-5.3-1.7-7.3c-1.1-2-3-3.7-5.5-4.9c-2.4-1.4-5.7-2.5-9.6-3.4l-7.4-1.7c-5.5-1.3-10.1-3-13.9-5.1c-3.8-2.1-6.7-4.8-8.7-8.1
	c-2-3.3-3-7.2-3-11.9c0-5.4,1.3-9.9,3.8-13.6c2.5-3.7,6-6.6,10.6-8.5c4.6-1.9,9.9-2.9,15.8-2.9c6.9,0,12.7,1.3,17.6,3.8
	c5,2.5,9.1,6.2,12.5,11.1l-8.2,6c-2.4-3.5-5.5-6.2-9.1-8.2c-3.6-2-8-3-13.3-3c-5.8,0-10.4,1.3-13.8,3.8c-3.3,2.5-5,6.2-5,11.1
	c0,2.9,0.6,5.3,1.8,7.2c1.3,1.9,3.2,3.5,5.7,4.8c2.5,1.2,5.7,2.3,9.5,3.1l7.4,1.7c5.9,1.3,10.7,3.1,14.5,5.3c3.7,2.3,6.5,5,8.2,8.3
	c1.8,3.3,2.7,7.2,2.7,11.7c0,5.6-1.3,10.4-3.8,14.5c-2.5,4.1-6.1,7.2-10.8,9.5C780.8,146.1,775.3,147.2,768.7,147.2L768.7,147.2z"/>
<g>
	<path d="M67.3,19.9c11.2-2.3,22.5-1,32.1,1.5c0.8,0.2,1.2-0.8,0.5-1.3C88.3,12.8,79.1,8.8,73.3,6.6L55,11.5
		c-3.3,0.9-6.4,2.7-8.9,5.1L16.6,46.2c-2.5,2.5-4.2,5.5-5.1,8.9l-0.7,2.7c1.7-1.5,3.4-3.2,5.2-5C28.6,40.8,45.9,24.3,67.3,19.9
		L67.3,19.9z"/>
	<path d="M33.8,172.2l12.3,12.3c2.5,2.5,5.5,4.2,8.9,5.1l40.4,10.8c3.3,0.9,6.9,0.9,10.2,0l40.4-10.8c3.4-0.9,6.4-2.7,8.9-5.1
		l2.8-2.8C77.8,149.5,38.7,169.4,33.8,172.2L33.8,172.2z"/>
	<path d="M97.7,137.4c-25.1,0.2-51.1,0.4-78.8,19.8l10.5,10.5l0.1-0.1c2-1.4,42.4-27.8,132.8,9.2l0.2,0.1l18.6-18.6
		c-7.8-2.8-58.6-21-83.1-21L97.7,137.4L97.7,137.4z"/>
	<path d="M137.2,41L137.2,41c2.6,2.4,5.3,5,8,7.7C171.5,75,189,85.9,199.1,90.5l-9.5-35.5c-0.9-3.3-2.7-6.4-5.1-8.9l-29.6-29.6
		c-2.5-2.5-5.5-4.2-8.9-5.1L105.7,0.7c-3.3-0.9-6.9-0.9-10.2,0L83.3,3.9c12.4,5.6,31.5,16.5,53.7,37C137.1,40.9,137.2,41,137.2,41
		L137.2,41z"/>
	<path d="M132.7,86.1c4.9,1.6,26.3,12,26.3,12c1.7,0.7,7.3,3.3,8.9,4.1c0.7,0.3,1.4-0.6,0.8-1.1c-1.5-1.4-5.8-5-10.9-8.6
		c0,0-21.8-15.4-27.2-18.5c-7.8-4.3-47.3-26.7-81.3-10C25.8,75.6,8,89.7,0.6,96c-0.8,3.2-0.8,6.5,0.1,9.7l3.4,12.8
		c7.2-6.7,20.2-17.2,40.4-28.2C79.9,71.1,106.4,77.6,132.7,86.1L132.7,86.1z"/>
	<path d="M55.8,128c-3.1,1.7-17.5,10.3-17.5,10.3s-4.9,3-0.2,1.9c2-0.5,7.8-3.1,9.7-3.6c0,0,19.1-7,49.8-5.4c0.1,0,0.2,0,0.4,0
		c27.6,0,84.2,21,86.6,21.9l1.1,0.6c1.8-2.2,3.2-4.7,3.9-7.5l2.7-10.2c-14.1-5.9-55.1-22.3-81-22.3C80.1,113.6,56.1,127.9,55.8,128
		L55.8,128z"/>
	<path d="M131.7,44.5c-2-1.7-4.9-3.8-8.5-6.3c-1.8-1.2-3.6-2.3-5.4-3.2c-8.1-4.1-29.1-13.1-49.2-9c-19.7,4.1-35.5,19.2-48.2,31.3
		c-4.7,4.5-8.8,8.3-12.4,11.1L3.3,85.6c9.4-7.4,24.4-18,43.2-27.2c36.9-18.1,79.2,5.4,87.3,10.3c12.1,7.3,47.9,34.4,64,46.8l2.6-9.8
		c0.7-2.5,0.8-5,0.5-7.5c-10.4-3.8-29.7-14.5-60.2-45C137.7,50,134.7,47.2,131.7,44.5L131.7,44.5z"/>
	<path d="M47.5,95.8C25.3,107.8,12,119.5,6,125.4l5.5,20.7c0.3,1.2,0.8,2.4,1.4,3.5c9.5-9.3,38.6-26.3,39.8-27
		c1-0.6,25.6-15.3,58.7-15.3c26.9,0,67.5,16,82.6,22.4l1.1-4.2c-9.9-6.7-37.4-24.5-64.4-33.5C105.8,83.8,80.7,77.8,47.5,95.8
		L47.5,95.8z"/>
</g>
</svg>
