<svg width="1300" height="760" viewBox="0 0 1300 760" fill="none" xmlns="http://www.w3.org/2000/svg">
<path fill-rule="evenodd" clip-rule="evenodd" d="M301.488 593.031C323.167 600.974 346.394 605.708 370.592 606.657L370.591 759.299C325.445 758.242 282.248 749.307 242.321 733.814L301.488 593.031ZM458.983 592.601L517.569 733.584C477.024 749.382 433.539 758.245 388.705 759.298L388.705 606.656C413.08 605.698 436.744 600.882 458.983 592.601ZM225.536 546.57C242.966 562.671 262.924 576.076 284.747 586.123L225.599 726.859C185.449 709.019 148.969 684.419 117.602 654.505L225.536 546.57ZM552.827 540.586L552.859 540.618L648.61 634.833L648.627 634.849C648.635 634.857 648.643 634.864 648.651 634.872L648.709 634.932L648.74 634.963L648.765 634.989L648.829 635.055C648.915 635.146 649 635.238 649.082 635.332C649.106 635.36 649.131 635.389 649.156 635.418L649.223 635.498C649.241 635.52 649.259 635.542 649.277 635.564C649.304 635.597 649.332 635.63 649.358 635.664L649.427 635.752C649.448 635.778 649.468 635.805 649.488 635.832L649.558 635.925L649.613 636L649.675 636.087C649.698 636.121 649.721 636.154 649.744 636.188L649.764 636.216L649.783 636.245C649.81 636.285 649.836 636.325 649.862 636.365C649.873 636.382 649.885 636.4 649.896 636.417L649.975 636.544L649.992 636.571L650.009 636.598C650.034 636.64 650.059 636.682 650.084 636.725C650.1 636.753 650.116 636.781 650.132 636.809C650.147 636.835 650.162 636.861 650.176 636.887C650.301 637.112 650.416 637.34 650.52 637.573C650.53 637.595 650.54 637.617 650.55 637.64C650.597 637.745 650.641 637.852 650.683 637.959C650.692 637.981 650.7 638.002 650.708 638.023C650.845 638.378 650.959 638.741 651.05 639.108C651.092 639.279 651.129 639.451 651.161 639.623C651.166 639.647 651.17 639.671 651.174 639.695C651.181 639.731 651.187 639.768 651.193 639.805L651.21 639.912L651.226 640.019C651.231 640.056 651.236 640.093 651.241 640.13L651.252 640.219L651.264 640.326C651.267 640.36 651.271 640.394 651.274 640.427C651.276 640.451 651.278 640.475 651.281 640.5C651.29 640.608 651.297 640.716 651.303 640.824C651.308 640.929 651.312 641.034 651.313 641.139C651.315 641.245 651.315 641.352 651.313 641.458C651.311 641.564 651.307 641.67 651.302 641.776L651.297 641.859C651.295 641.888 651.293 641.917 651.291 641.945C651.288 641.985 651.285 642.025 651.281 642.066C651.279 642.091 651.277 642.116 651.274 642.141C651.271 642.182 651.266 642.224 651.262 642.265C651.259 642.292 651.256 642.319 651.253 642.345C651.24 642.454 651.226 642.562 651.209 642.67L651.196 642.754C651.178 642.866 651.157 642.978 651.134 643.09C651.114 643.189 651.093 643.287 651.07 643.385C651.062 643.418 651.054 643.452 651.045 643.485C651.02 643.586 650.993 643.688 650.964 643.789C650.955 643.819 650.946 643.849 650.937 643.88L650.918 643.944L650.876 644.078C650.845 644.175 650.811 644.272 650.776 644.369C650.764 644.403 650.752 644.437 650.739 644.471C650.702 644.568 650.664 644.665 650.624 644.762C650.612 644.792 650.599 644.823 650.586 644.853L650.559 644.915C650.54 644.958 650.521 645.001 650.501 645.044C650.489 645.07 650.477 645.097 650.465 645.123C650.449 645.157 650.433 645.191 650.417 645.225C650.403 645.254 650.388 645.283 650.374 645.312C650.357 645.346 650.34 645.38 650.323 645.413C650.307 645.444 650.291 645.474 650.275 645.504C650.259 645.535 650.243 645.566 650.226 645.597C650.206 645.634 650.185 645.671 650.165 645.709L650.128 645.772L650.06 645.891L650.021 645.955C649.959 646.059 649.894 646.162 649.826 646.264C649.815 646.281 649.805 646.297 649.794 646.314C649.77 646.349 649.746 646.385 649.721 646.421L649.672 646.491L649.603 646.588L649.57 646.633L649.536 646.679C649.525 646.694 649.513 646.71 649.502 646.725C649.47 646.767 649.438 646.808 649.406 646.85C649.386 646.875 649.366 646.901 649.346 646.926C649.326 646.951 649.306 646.975 649.287 646.999C649.255 647.038 649.223 647.076 649.191 647.115L649.139 647.176L649.088 647.235C649.01 647.324 648.93 647.413 648.848 647.5C648.821 647.528 648.795 647.555 648.768 647.583L648.714 647.638L648.698 647.655L648.674 647.679C615.435 681.041 576.659 707.705 534.282 726.606L475.688 585.605C499.419 574.527 521.186 559.336 540.021 540.564L540.047 540.539L540.113 540.473L540.161 540.427L540.203 540.388C540.24 540.353 540.277 540.318 540.315 540.284C540.34 540.262 540.365 540.239 540.39 540.217L540.456 540.158L540.577 540.054C540.591 540.042 540.605 540.03 540.619 540.019L540.719 539.936C540.744 539.916 540.769 539.896 540.794 539.876L540.904 539.79L540.959 539.748C540.993 539.723 541.026 539.698 541.059 539.674C541.092 539.65 541.125 539.626 541.158 539.602C541.173 539.592 541.188 539.581 541.203 539.571C541.246 539.54 541.29 539.51 541.334 539.48L541.403 539.434L541.489 539.377C541.523 539.355 541.558 539.333 541.592 539.311L541.673 539.261L541.761 539.207L541.868 539.144C541.898 539.126 541.928 539.109 541.958 539.092L542.021 539.057C542.069 539.03 542.117 539.004 542.166 538.978L542.194 538.964C542.239 538.939 542.285 538.916 542.331 538.893C542.355 538.881 542.379 538.869 542.403 538.857L542.536 538.792C542.547 538.788 542.557 538.783 542.567 538.778C542.685 538.722 542.804 538.67 542.924 538.619C542.933 538.616 542.942 538.613 542.95 538.609C542.998 538.589 543.046 538.57 543.093 538.551L543.154 538.528C543.332 538.459 543.513 538.396 543.695 538.339C543.707 538.336 543.718 538.332 543.73 538.328C546.842 537.365 550.369 538.119 552.827 540.586ZM173.183 474.567C183.229 496.384 196.632 516.337 212.73 533.764L104.795 641.698C74.8805 610.331 50.281 573.851 32.4409 533.703L173.183 474.567ZM387.203 197.938C435.517 197.938 480.679 216.934 514.512 250.299C518.072 253.811 518.112 259.544 514.601 263.105C511.089 266.666 505.355 266.705 501.795 263.194C471.311 233.131 430.698 216.048 387.203 216.048C296.849 216.048 223.602 289.295 223.602 379.649C223.602 470.004 296.849 543.25 387.203 543.25C431.095 543.25 472.218 525.899 502.691 495.528C506.233 491.998 511.966 492.007 515.497 495.55C519.027 499.092 519.018 504.826 515.475 508.356C481.642 542.076 435.937 561.361 387.203 561.361C286.847 561.361 205.491 480.006 205.491 379.649C205.491 279.293 286.847 197.938 387.203 197.938ZM152.642 388.707C153.591 412.911 158.327 436.142 166.273 457.825L25.4858 516.98C9.99271 477.053 1.05682 433.855 0 388.708L152.642 388.707ZM25.1447 243.201L165.789 302.807C158.134 324.108 153.572 346.883 152.642 370.592L7.86333e-06 370.591C1.04908 325.776 9.8616 282.882 25.1447 243.201ZM104.795 117.601L106.158 118.964C106.626 119.433 107.09 119.897 107.55 120.356L108.916 121.723L109.59 122.396L113.04 125.847C113.784 126.591 114.516 127.322 115.236 128.042L116.188 128.995C116.504 129.31 116.816 129.623 117.127 129.933L120.731 133.537C121.343 134.15 121.946 134.752 122.539 135.346L129.249 142.055L130.497 143.303L131.716 144.523C132.319 145.125 132.911 145.717 133.493 146.299L134.644 147.451L135.21 148.017L138.302 151.109C139.949 152.755 141.514 154.321 143.015 155.822L151.191 163.998L153.148 165.954C153.892 166.699 154.629 167.436 155.361 168.167L157.377 170.183L160.387 173.193C161.392 174.199 162.402 175.209 163.426 176.232L165.493 178.299L168.33 181.137L169.302 182.109L169.794 182.6L172.329 185.135L172.6 185.407L174.823 187.629L175.108 187.914L180.387 193.193C180.99 193.797 181.604 194.411 182.23 195.037L188.197 201.003L188.461 201.267L189.8 202.607L190.346 203.152C190.593 203.399 190.836 203.642 191.074 203.881L192.121 204.928L192.79 205.596L195.939 208.745L196.254 209.061L198.824 211.63C198.997 211.804 199.168 211.974 199.335 212.141L201.199 214.005C201.56 214.367 201.906 214.713 202.24 215.046L203.319 216.125C203.653 216.46 203.977 216.784 204.294 217.101L205.161 217.967C205.275 218.081 205.388 218.195 205.501 218.308L205.841 218.647C205.953 218.76 206.066 218.873 206.179 218.986L207.377 220.184C207.493 220.3 207.61 220.416 207.728 220.534L208.084 220.89C208.324 221.13 208.568 221.374 208.818 221.625L209.199 222.005L209.393 222.199L210.198 223.004L210.407 223.213L212.215 225.021L212.71 225.516L212.729 225.536C196.316 243.305 182.704 263.7 172.595 286.02L32.0577 226.461C49.9281 185.972 74.6657 149.193 104.795 117.601ZM534.182 32.651C575.743 51.1714 613.848 77.1635 646.674 109.628L646.702 109.655C646.782 109.735 646.86 109.816 646.936 109.898C646.955 109.918 646.974 109.938 646.993 109.959L647.042 110.013C647.122 110.102 647.199 110.191 647.275 110.282C647.297 110.308 647.318 110.334 647.34 110.361C647.546 110.615 647.737 110.878 647.912 111.148C647.926 111.168 647.939 111.189 647.952 111.21C648.053 111.368 648.147 111.528 648.237 111.689L648.286 111.78C648.337 111.874 648.385 111.968 648.432 112.063C648.449 112.097 648.466 112.132 648.482 112.166L648.52 112.248L648.55 112.312C648.599 112.419 648.645 112.527 648.69 112.635C648.809 112.926 648.912 113.222 648.999 113.522C649.008 113.551 649.016 113.58 649.024 113.61C649.051 113.706 649.077 113.802 649.1 113.899C649.126 114.002 649.149 114.106 649.171 114.21C649.193 114.314 649.212 114.418 649.231 114.523C649.236 114.553 649.241 114.584 649.246 114.614C649.261 114.711 649.276 114.809 649.288 114.907C649.301 115.01 649.313 115.114 649.323 115.217C649.333 115.328 649.341 115.438 649.348 115.549C649.356 115.704 649.361 115.86 649.362 116.016L649.362 116.055C649.362 116.146 649.361 116.238 649.358 116.33C649.355 116.436 649.351 116.541 649.344 116.647C649.342 116.678 649.34 116.709 649.337 116.74C649.329 116.846 649.32 116.953 649.308 117.059C649.305 117.083 649.303 117.108 649.3 117.133C649.286 117.246 649.271 117.358 649.254 117.47C649.226 117.645 649.194 117.819 649.156 117.993L649.144 118.048L649.135 118.086L649.122 118.143C649.082 118.316 649.036 118.488 648.985 118.66C648.954 118.764 648.921 118.868 648.886 118.972C648.876 119.001 648.866 119.03 648.856 119.059C648.847 119.084 648.838 119.11 648.829 119.135C648.768 119.306 648.701 119.474 648.629 119.641C648.588 119.737 648.546 119.832 648.501 119.926C648.486 119.958 648.471 119.99 648.456 120.022C648.414 120.108 648.37 120.194 648.325 120.279L648.261 120.399C648.176 120.556 648.085 120.711 647.99 120.863C647.975 120.887 647.959 120.912 647.944 120.936L647.899 121.005C647.837 121.101 647.772 121.197 647.705 121.291C647.635 121.39 647.563 121.487 647.489 121.584L647.453 121.629C647.439 121.648 647.424 121.667 647.409 121.685C647.336 121.778 647.26 121.87 647.182 121.96C647.111 122.043 647.038 122.125 646.964 122.206C646.893 122.283 646.82 122.359 646.745 122.434L646.718 122.461L551.741 217.685C551.691 217.739 551.64 217.791 551.588 217.844C548.38 221.097 543.316 221.411 539.75 218.762L539.691 218.718C539.592 218.644 539.495 218.567 539.4 218.489C539.379 218.471 539.358 218.454 539.337 218.436L539.292 218.399L539.248 218.362C539.219 218.336 539.19 218.311 539.16 218.285L539.085 218.218L539.002 218.143L538.911 218.057L538.874 218.022L538.782 217.933C519.736 199.149 497.838 184.014 474.008 173.047L533.867 33.4971C533.987 33.2174 534.092 32.9351 534.182 32.651ZM226.256 32.1485L284.11 173.471C262.535 183.485 242.797 196.785 225.536 212.729L117.601 104.795C149.139 74.7167 185.847 50.0119 226.256 32.1485ZM370.591 0L370.592 152.642C346.148 153.601 322.697 158.421 300.83 166.51L242.991 25.2254C282.731 9.89262 325.697 1.05092 370.591 0ZM388.705 0.000380763C433.523 1.0534 476.996 9.91005 517.536 25.7015L517.475 25.8181C517.386 25.9939 517.301 26.1738 517.223 26.3577L457.263 166.144C435.535 158.199 412.473 153.581 388.705 152.643L388.705 0.000380763Z" fill="black"/>
<path d="M495.911 369.832H455.075V289.774C455.075 287.766 454.531 286.211 453.432 285.109C452.344 284.008 450.784 283.462 448.782 283.462H443.865C442.038 283.462 440.58 284.059 439.492 285.243C438.393 286.438 437.849 287.941 437.849 289.764V469.351C437.849 471.184 438.393 472.646 439.492 473.738C440.59 474.829 442.038 475.385 443.865 475.385H448.782C450.599 475.385 452.108 474.839 453.289 473.738C454.469 472.636 455.065 471.184 455.065 469.351V386.276H495.901C497.728 386.276 498.744 384.793 498.744 382.96V373.137C498.744 371.304 497.728 369.822 495.901 369.822L495.911 369.832Z" fill="black"/>
<path d="M576.155 285.106C575.056 284.004 573.506 283.458 571.504 283.458H566.587C564.76 283.458 563.302 284.055 562.214 285.239C561.116 286.434 560.572 287.937 560.572 289.76V369.818H519.735C517.908 369.818 516.86 371.301 516.86 373.133V382.957C516.86 384.789 517.908 386.272 519.735 386.272H560.572V469.347C560.572 471.18 561.116 472.642 562.214 473.734C563.312 474.825 564.76 475.381 566.587 475.381H571.504C573.321 475.381 574.83 474.835 576.011 473.734C577.192 472.632 577.787 471.18 577.787 469.347V289.77C577.787 287.762 577.243 286.207 576.144 285.106H576.155Z" fill="black"/>
<path d="M621.806 402.457C621.621 396.969 621.529 389.298 621.529 379.423C621.529 369.548 621.621 361.877 621.806 356.389C622.535 331.532 629.279 312.699 642.039 299.911C654.789 287.122 672.107 280.717 693.973 280.717C715.839 280.717 733.157 287.122 745.907 299.911C758.656 312.71 765.401 331.532 766.14 356.389C766.499 367.355 766.684 375.037 766.684 379.423C766.684 383.809 766.499 391.491 766.14 402.457C764.867 452.912 740.805 478.129 693.973 478.129C647.141 478.129 623.079 452.901 621.806 402.457ZM733.198 446.734C742.94 436.776 748.185 421.558 748.914 401.077C749.274 390.111 749.458 382.893 749.458 379.413C749.458 375.932 749.274 368.725 748.914 357.748C748.185 337.278 742.899 322.059 733.064 312.102C723.22 302.145 710.193 297.161 693.973 297.161C677.753 297.161 664.726 302.145 654.882 312.102C645.037 322.069 639.75 337.288 639.032 357.748C638.847 363.236 638.754 370.454 638.754 379.413C638.754 388.371 638.847 395.589 639.032 401.077C639.761 421.547 644.996 436.766 654.748 446.734C664.49 456.701 677.569 461.674 693.973 461.674C710.377 461.674 723.445 456.701 733.198 446.734Z" fill="black"/>
<path d="M811.782 473.745C810.684 472.644 810.14 471.192 810.14 469.359V289.771C810.14 287.949 810.684 286.435 811.782 285.251C812.881 284.067 814.328 283.47 816.156 283.47H879.843C899.522 283.47 914.921 288.134 926.038 297.453C937.156 306.772 942.709 320.58 942.709 338.857C942.709 353.303 939.158 364.949 932.054 373.814C924.95 382.68 914.736 388.662 901.442 391.772L945.45 466.898C945.994 468 946.272 468.999 946.272 469.915C946.272 471.377 945.728 472.654 944.629 473.756C943.531 474.857 942.258 475.403 940.8 475.403H937.515C934.784 475.403 932.731 474.816 931.366 473.622C930.001 472.438 928.584 470.564 927.126 468L883.662 394.243H827.355V469.369C827.355 471.202 826.76 472.664 825.579 473.756C824.389 474.857 822.89 475.403 821.073 475.403H816.156C814.328 475.403 812.871 474.857 811.782 473.756V473.745ZM878.478 377.779C894.328 377.779 906.133 374.535 913.874 368.048C921.614 361.561 925.494 351.831 925.494 338.846C925.494 325.862 921.624 316.131 913.874 309.644C906.123 303.157 894.328 299.914 878.478 299.914H827.366V377.779H878.478Z" fill="black"/>
<path d="M1001.63 459.069C989.503 446.363 983.446 427.035 983.446 401.077V289.768C983.446 287.945 983.99 286.432 985.088 285.248C986.187 284.064 987.634 283.466 989.461 283.466H994.379C996.38 283.466 997.931 284.012 999.029 285.114C1000.13 286.216 1000.67 287.77 1000.67 289.778V401.921C1000.67 422.031 1005.32 437.013 1014.61 446.888C1023.9 456.763 1037.02 461.695 1053.97 461.695C1070.92 461.695 1083.76 456.763 1093.06 446.888C1102.36 437.013 1107 422.031 1107 401.921V289.768C1107 287.76 1107.59 286.205 1108.78 285.104C1109.96 284.002 1111.47 283.456 1113.28 283.456H1118.2C1120.02 283.456 1121.49 284.053 1122.58 285.237C1123.67 286.432 1124.22 287.935 1124.22 289.758V401.077C1124.22 427.221 1118.2 446.589 1106.18 459.203C1094.15 471.817 1076.75 478.118 1053.97 478.118C1031.19 478.118 1013.74 471.765 1001.63 459.059V459.069Z" fill="black"/>
<path d="M1194.34 471.137C1183.85 466.473 1175.84 460.397 1170.28 452.901C1164.72 445.405 1161.76 437.363 1161.4 428.776C1161.4 427.314 1161.95 426.037 1163.05 424.935C1164.14 423.833 1165.51 423.288 1167.14 423.288H1172.61C1175.9 423.288 1177.9 425.12 1178.63 428.776C1179.9 437.549 1184.91 445.23 1193.67 451.81C1202.42 458.39 1214.99 461.685 1231.39 461.685C1248.7 461.685 1261.6 458.534 1270.08 452.222C1278.54 445.92 1282.78 437.096 1282.78 425.759C1282.78 418.808 1280.73 413.104 1276.64 408.625C1272.54 404.146 1266.56 400.223 1258.73 396.835C1250.9 393.458 1239.05 389.205 1223.19 384.087C1209.16 379.516 1198.18 375.037 1190.25 370.65C1182.33 366.264 1176.44 360.878 1172.62 354.474C1168.8 348.079 1166.89 339.945 1166.89 330.07C1166.89 320.751 1169.39 312.339 1174.4 304.843C1179.41 297.347 1186.66 291.457 1196.13 287.163C1205.61 282.869 1216.91 280.717 1230.03 280.717C1243.15 280.717 1255.09 283.147 1264.75 287.987C1274.41 292.837 1281.7 298.953 1286.61 306.356C1291.53 313.76 1294.17 321.205 1294.54 328.701C1294.54 330.163 1294.04 331.44 1293.04 332.541C1292.03 333.633 1290.62 334.189 1288.8 334.189H1283.33C1282.06 334.189 1280.77 333.777 1279.5 332.953C1278.23 332.129 1277.49 330.719 1277.31 328.701C1276.22 319.567 1271.34 312.02 1262.68 306.078C1254.03 300.137 1243.14 297.172 1230.02 297.172C1215.99 297.172 1204.83 299.911 1196.53 305.399C1188.24 310.887 1184.09 319.104 1184.09 330.08C1184.09 337.206 1185.96 343.106 1189.7 347.76C1193.43 352.425 1199.03 356.44 1206.51 359.828C1213.98 363.216 1225.01 367.283 1239.59 372.03C1254.52 376.787 1266.2 381.348 1274.57 385.735C1282.95 390.121 1289.28 395.424 1293.57 401.633C1297.85 407.853 1300 415.894 1300 425.759C1300 442.213 1293.89 455.053 1281.69 464.279C1269.47 473.516 1252.71 478.129 1231.38 478.129C1217.17 478.129 1204.82 475.802 1194.35 471.137H1194.34Z" fill="black"/>
</svg>
